<svg height="512" viewBox="0 0 64 64" width="512" xmlns="http://www.w3.org/2000/svg">
    <g id="relationship">
        <path d="m55 38h6v22h-6z" fill="#c0ab91"/>
        <path d="m57 38h4v22h-4z" fill="#b39a7c"/>
        <path d="m55 41v16l-12 4h-15l-15.67-5.53a2 2 0 0 1 -1.33-1.89v-.91a2 2 0 0 1 2.56-1.92l14.44 4.25h8l9-5h-12a2.006 2.006 0 0 1 -2-2v-.5a1.992 1.992 0 0 1 1.44-1.92l15.56-4.58z" fill="#ffdaaa"/>
        <path d="m55 41v16l-12 4h-15l-15.67-5.53a2 2 0 0 1 -1.33-1.89v-.91a2.105 2.105 0 0 1 .02-.25l12.98 4.58h15l12-4v-12z" fill="#ffc477"/>
        <path d="m53 10.42v.91a2 2 0 0 1 -2.56 1.92l-14.44-4.25h-8l-9 5h12a2.006 2.006 0 0 1 2 2v.5a1.992 1.992 0 0 1 -1.44 1.92l-15.56 4.58h-7v-16l12-4h15l15.67 5.53a2 2 0 0 1 1.33 1.89z" fill="#ffdaaa"/>
        <path d="m53 10.42v.91a2.105 2.105 0 0 1 -.02.25l-12.98-4.58h-15l-12 4v12h-4v-16l12-4h15l15.67 5.53a2 2 0 0 1 1.33 1.89z" fill="#ffc477"/>
        <path d="m42 29v1c0 7-10 12-10 12s-10-5-10-12v-1a5 5 0 0 1 5-5c2.76 0 5 2.24 5 6 0-3.76 2.24-6 5-6a5 5 0 0 1 5 5z" fill="#ff3051"/>
        <path d="m9 23v3h-6v-22h6v3z" fill="#c0ab91"/>
        <path d="m42 29v1c0 7-10 12-10 12a26.97 26.97 0 0 1 -3.92-2.51c.57.33.92.51.92.51s10-5 10-12v-1a5.029 5.029 0 0 0 -.91-2.88 5 5 0 0 1 3.91 4.88z" fill="#cd2a00"/>
        <path d="m52 7.59-15.67-5.53a.919.919 0 0 0 -.33-.06h-15a1.185 1.185 0 0 0 -.32.05l-10.68 3.56v-1.61a1 1 0 0 0 -1-1h-6a1 1 0 0 0 -1 1v22a1 1 0 0 0 1 1h6a1 1 0 0 0 1-1v-2h6a.863.863 0 0 0 .28-.04l15.57-4.58a3.015 3.015 0 0 0 2.15-2.88v-.5a3.009 3.009 0 0 0 -3-3h-8.14l5.4-3h7.6l14.29 4.21a3.025 3.025 0 0 0 2.65-.48 2.984 2.984 0 0 0 1.2-2.4v-.91a3 3 0 0 0 -2-2.83zm-44 17.41h-4v-20h4zm44-13.67a1 1 0 0 1 -1.28.96l-14.44-4.25a.863.863 0 0 0 -.28-.04h-8a.947.947 0 0 0 -.49.13l-9 5a1 1 0 0 0 .49 1.87h12a1 1 0 0 1 1 1v.5a1.008 1.008 0 0 1 -.72.96l-15.42 4.54h-5.86v-14.28l11.16-3.72h14.67l15.5 5.47a1 1 0 0 1 .67.95z"/>
        <path d="m61 37h-6a1 1 0 0 0 -1 1v2h-6a.863.863 0 0 0 -.28.04l-15.57 4.58a3.015 3.015 0 0 0 -2.15 2.88v.5a3.009 3.009 0 0 0 3 3h8.14l-5.4 3h-7.6l-14.29-4.21a3.025 3.025 0 0 0 -2.65.48 2.984 2.984 0 0 0 -1.2 2.4v.91a3 3 0 0 0 2 2.83l15.67 5.53a.919.919 0 0 0 .33.06h15a1.185 1.185 0 0 0 .32-.05l10.68-3.56v1.61a1 1 0 0 0 1 1h6a1 1 0 0 0 1-1v-22a1 1 0 0 0 -1-1zm-7 19.28-11.16 3.72h-14.67l-15.5-5.47a1 1 0 0 1 -.67-.95v-.91a1 1 0 0 1 1.28-.96l14.44 4.25a.863.863 0 0 0 .28.04h8a.947.947 0 0 0 .49-.13l9-5a1 1 0 0 0 -.49-1.87h-12a1 1 0 0 1 -1-1v-.5a1.008 1.008 0 0 1 .72-.96l15.42-4.54h5.86zm6 2.72h-4v-20h4z"/>
        <path d="m37 23a5.608 5.608 0 0 0 -5 2.92 5.608 5.608 0 0 0 -5-2.92 6 6 0 0 0 -6 6v1c0 7.53 10.12 12.68 10.55 12.89a.975.975 0 0 0 .9 0c.43-.21 10.55-5.36 10.55-12.89v-1a6 6 0 0 0 -6-6zm4 7c0 5.49-7.12 9.82-9 10.87-1.88-1.05-9-5.38-9-10.87v-1a4 4 0 0 1 4-4c2.39 0 4 2.01 4 5a1 1 0 0 0 2 0c0-2.99 1.61-5 4-5a4 4 0 0 1 4 4z"/>
        <path d="m45 31h2v2h-2z"/>
        <path d="m49 31h6v2h-6z"/>
        <path d="m40.9 21.101h2v2h-2z" transform="matrix(.707 -.707 .707 .707 -3.355 36.1)"/>
        <path d="m43.142 16.858h6v2h-6z" transform="matrix(.707 -.707 .707 .707 .887 37.858)"/>
        <path d="m17 31h2v2h-2z"/><path d="m9 31h6v2h-6z"/>
        <path d="m21.101 40.9h2v2h-2z" transform="matrix(.707 -.707 .707 .707 -23.154 27.9)"/>
        <path d="m14.858 45.142h6v2h-6z" transform="matrix(.707 -.707 .707 .707 -27.397 26.142)"/>
    </g>
</svg>